<svg id="Layer_1" data-name="Layer 1" xmlns="http://www.w3.org/2000/svg" viewBox="0 0 535 105"><defs><style>.cls-1{fill:#00aeef;}</style></defs><path class="cls-1" d="M46.6,89.94C64.44,89.94,76.3,81,76.3,66V65.8C76.3,52.05,65.81,46.59,49,42.92,38.72,40.61,36.2,39.14,36.2,35.78v-.21c0-2.73,2.42-4.72,7.35-4.72,6.51,0,13.86,2.41,20.58,7.24L74.31,23.71c-8-6.4-17.74-9.76-30.23-9.76-17.64,0-28.45,9.86-28.45,23.51v.21c0,15,12.07,19.42,27.71,23,10.08,2.41,12.49,4,12.49,7.14V68c0,3.15-2.94,5-8.5,5-8.5,0-16.48-3-23.83-8.81L12.17,77.77C21.3,85.85,33.58,89.94,46.6,89.94m52.06,0a21.85,21.85,0,0,0,16.79-7.24v6h19.63V56c0-8-1.78-13.86-6.08-18-4.52-4.52-11.45-6.93-21.63-6.93a57,57,0,0,0-23,4.41l4.1,14a42.92,42.92,0,0,1,15.74-3.15c7.66,0,11.34,3.36,11.34,9.34v1a40.73,40.73,0,0,0-13.65-2.21c-13.33,0-22.25,6-22.25,17.85v.2c0,11.24,8.19,17.53,19,17.53m7.14-12.49c-4.1,0-7-2.31-7-6.19v-.21c0-4.3,3.36-7,9.14-7a21.94,21.94,0,0,1,7.87,1.47v2.62c0,5.67-4.09,9.34-10,9.34m58.88,12.39a28.36,28.36,0,0,0,13.86-3.36V71A17.53,17.53,0,0,1,171,72.84c-3.67,0-5.46-1.68-5.46-5.67V47.85h13.23v-16H165.52V17.52H145.69V31.9H139v16h6.72v23.2c0,13.54,7,18.79,19,18.79m36.32.1a21.85,21.85,0,0,0,16.8-7.24v6h19.63V56c0-8-1.79-13.86-6.09-18-4.51-4.52-11.44-6.93-21.62-6.93a56.92,56.92,0,0,0-23,4.41l4.09,14a42.93,42.93,0,0,1,15.75-3.15c7.66,0,11.33,3.36,11.33,9.34v1a40.62,40.62,0,0,0-13.64-2.21c-13.33,0-22.26,6-22.26,17.85v.2c0,11.24,8.19,17.53,19,17.53m7.14-12.49c-4.09,0-7-2.31-7-6.19v-.21c0-4.3,3.36-7,9.13-7a21.9,21.9,0,0,1,7.87,1.47v2.62c0,5.67-4.09,9.34-10,9.34M244,88.68H264V46.59l18.69,28.66h.42l18.79-28.76V88.68h20.26V15.21H300.62L283.09,43.65,265.56,15.21H244Zm101.5,1.26a21.85,21.85,0,0,0,16.8-7.24v6H382V56c0-8-1.79-13.86-6.09-18-4.51-4.52-11.44-6.93-21.62-6.93a57,57,0,0,0-23,4.41l4.09,14a43,43,0,0,1,15.75-3.15c7.66,0,11.33,3.36,11.33,9.34v1a40.62,40.62,0,0,0-13.64-2.21c-13.33,0-22.25,6-22.25,17.85v.2c0,11.24,8.18,17.53,19,17.53m7.14-12.49c-4.09,0-7-2.31-7-6.19v-.21c0-4.3,3.36-7,9.13-7a21.9,21.9,0,0,1,7.87,1.47v2.62c0,5.67-4.09,9.34-10,9.34m36.95-50.7h20.68V12.06H389.63Zm.42,61.93h19.84V31.9H390.05Zm51,1.16a28.36,28.36,0,0,0,13.86-3.36V71a17.53,17.53,0,0,1-7.56,1.89c-3.67,0-5.46-1.68-5.46-5.67V47.85h13.23v-16H441.9V17.52H422.07V31.9h-6.72v16h6.72v23.2c0,13.54,7,18.79,19,18.79m47.45.21c18.27,0,31.49-13.54,31.49-29.71v-.21c0-16.16-13.12-29.49-31.28-29.49s-31.39,13.54-31.39,29.7v.21c0,16.17,13.13,29.5,31.18,29.5m.21-16.9c-7,0-12.07-5.88-12.07-12.81v-.21c0-6.92,4.62-12.7,11.86-12.7,7,0,12.18,5.88,12.18,12.91v.21c0,6.83-4.73,12.6-12,12.6"/></svg>