<?xml version="1.0" encoding="utf-8"?>
<!-- Generator: Adobe Illustrator 17.1.0, SVG Export Plug-In . SVG Version: 6.00 Build 0)  -->
<!DOCTYPE svg PUBLIC "-//W3C//DTD SVG 1.1//EN" "http://www.w3.org/Graphics/SVG/1.1/DTD/svg11.dtd">
<svg version="1.1" id="Layer_1" xmlns="http://www.w3.org/2000/svg" xmlns:xlink="http://www.w3.org/1999/xlink" x="0px" y="0px"
	 viewBox="0 0 250.4 106" enable-background="new 0 0 250.4 106" xml:space="preserve">
<g>
	<path fill="#FFFFFF" d="M99.2,41.1h6.4c-0.5-2.3-1.2-4.6-2.1-6.8c-0.5-0.1-0.9-0.2-1.3-0.4c-0.7-0.4-1.4-0.9-2-1.7v6h-1.4V24.7
		C89.4,9.8,72.8,0,54,0C24.7,0,1,23.7,1,53c0,29.3,23.7,53,53,53c24.4,0,44.9-16.5,51.1-38.9h-5.9V41.1z M74.5,18.6h1.4v8.8l5.2-4.5
		h2.1l-6.1,5.3l6.5,5.8h-2l-5.6-5v5h-1.4V18.6z M63.9,18.6h1.4v8.8l5.2-4.5h2.1l-6.1,5.3l6.5,5.8h-2l-5.6-5v5h-1.4V18.6z M44.7,24.8
		c1.1-1.4,2.6-2.1,4.4-2.1c1.9,0,3.4,0.7,4.6,2.2c0.8,1,1.2,2.3,1.2,3.8h-10c0,1.3,0.4,2.4,1.2,3.2c0.8,0.8,1.8,1.2,3,1.2
		c0.6,0,1.1-0.1,1.7-0.3c0.5-0.2,1-0.5,1.4-0.8c0.4-0.3,0.8-0.9,1.2-1.6l1.2,0.6c-0.4,0.8-0.9,1.4-1.4,1.9c-0.5,0.5-1.1,0.8-1.8,1.1
		c-0.7,0.2-1.4,0.4-2.2,0.4c-1.8,0-3.2-0.6-4.3-1.8c-1-1.2-1.5-2.5-1.5-4C43.4,27.1,43.9,25.9,44.7,24.8z M30,19l5,11.7L40,19h1.6
		l-6.6,15.1h-0.3L28.3,19H30z M21,67.2h-5.2V41.1H21V67.2z M57.5,67.2h-5.2V46.3H31.4v20.9h-5.2V41.1h31.3V67.2z M62,24.2
		c-0.3-0.1-0.6-0.2-0.8-0.2c-0.5,0-0.9,0.2-1.4,0.6c-0.4,0.4-0.8,1-1,1.8c-0.2,0.6-0.3,1.9-0.3,3.9v3.8h-1.5V22.9h1.5v1.6
		c0.4-0.6,0.9-1.1,1.4-1.4c0.5-0.3,1-0.5,1.5-0.5c0.4,0,0.8,0.1,1.3,0.4L62,24.2z M94,46.3H67.9v5.2H94v15.6H62.7v-5.2h26.1v-5.2
		H62.7V41.1H94V46.3z M94.5,32.6c-1.1,1.2-2.5,1.7-4.2,1.7c-1.7,0-3.1-0.6-4.2-1.7c-1.1-1.2-1.6-2.5-1.6-4.1c0-1.5,0.5-2.9,1.5-4
		c1.1-1.3,2.6-1.9,4.3-1.9c1.7,0,3.1,0.6,4.3,1.9c1,1.1,1.5,2.5,1.5,4C96.1,30.1,95.6,31.5,94.5,32.6z"/>
	<path fill="#FFFFFF" d="M52.5,25.5c-0.4-0.5-0.9-0.8-1.5-1.1c-0.6-0.3-1.2-0.4-1.9-0.4c-1.1,0-2,0.4-2.8,1.1
		c-0.6,0.5-1,1.3-1.3,2.3h8.3C53.2,26.6,52.9,26,52.5,25.5z"/>
	<path fill="#FFFFFF" d="M100.1,28.6c0,0.8,0.2,1.6,0.6,2.3c0.4,0.7,0.9,1.2,1.6,1.6c0.2,0.1,0.4,0.2,0.7,0.3
		c-0.8-1.9-1.7-3.7-2.7-5.5C100.2,27.7,100.1,28.1,100.1,28.6z"/>
	<path fill="#FFFFFF" d="M90.3,24c-1.2,0-2.2,0.4-3.1,1.3c-0.9,0.9-1.3,1.9-1.3,3.2c0,0.8,0.2,1.6,0.6,2.3c0.4,0.7,0.9,1.2,1.6,1.6
		c0.7,0.4,1.4,0.6,2.2,0.6c0.8,0,1.5-0.2,2.2-0.6c0.7-0.4,1.2-0.9,1.6-1.6c0.4-0.7,0.6-1.4,0.6-2.3c0-1.3-0.4-2.3-1.3-3.2
		C92.5,24.5,91.5,24,90.3,24z"/>
	<path fill="#FFFFFF" d="M104.4,61.9h1.8c0.5-2.9,0.8-5.9,0.8-8.9c0-2.3-0.2-4.5-0.4-6.7h-2.1V61.9z"/>
	<path fill="#FFFFFF" d="M106.6,46.3h18.7v15.6h-19c-0.3,1.8-0.7,3.5-1.2,5.2h25.4V41.1h-24.9C106,42.8,106.3,44.5,106.6,46.3z"/>
	<polygon fill="#FFFFFF" points="135.7,67.2 140.9,67.2 140.9,46.3 148.7,46.3 148.7,67.2 154,67.2 154,46.3 161.8,46.3 161.8,67.2 
		167,67.2 167,41.1 135.7,41.1 	"/>
	<polygon fill="#FFFFFF" points="172.2,67.2 177.4,67.2 177.4,46.3 198.3,46.3 198.3,67.2 203.5,67.2 203.5,41.1 172.2,41.1 	"/>
	<rect x="208.7" y="41.1" fill="#FFFFFF" width="5.2" height="26.1"/>
	<rect x="219.1" y="41.1" fill="#FFFFFF" width="31.3" height="5.2"/>
	<path fill="#FFFFFF" d="M219.1,67.2h31.3V51.5h-31.3V67.2z M224.3,56.7h20.9v5.2h-20.9V56.7z"/>
	<path fill="#FFFFFF" d="M101.4,25.3c0.8-0.9,1.9-1.3,3.1-1.3c0.8,0,1.5,0.2,2.2,0.6c0.7,0.4,1.2,0.9,1.6,1.7
		c0.4,0.7,0.6,1.5,0.6,2.3c0,0.8-0.2,1.5-0.6,2.3c-0.4,0.7-0.9,1.3-1.6,1.7c-0.7,0.4-1.4,0.6-2.2,0.6c-0.5,0-1.1-0.1-1.6-0.3
		c0.2,0.5,0.4,1,0.6,1.5c0.4,0.1,0.7,0.1,1.1,0.1c1.6,0,2.9-0.6,4-1.7c1.1-1.1,1.7-2.5,1.7-4.2c0-1.6-0.6-3-1.7-4.1
		c-1.1-1.1-2.5-1.7-4.1-1.7c-0.9,0-1.7,0.2-2.5,0.6c-0.7,0.4-1.4,1-2,1.8v-2.1h-1.4v1.8c0.5,0.8,1,1.7,1.5,2.6
		C100.5,26.5,100.9,25.9,101.4,25.3z"/>
	<path fill="#FFFFFF" d="M118.4,34.4c0.8,0,1.6-0.1,2.2-0.4c0.7-0.3,1.2-0.6,1.8-1.1c0.5-0.5,1-1.1,1.4-1.9l-1.2-0.6
		c-0.4,0.7-0.8,1.3-1.2,1.6c-0.4,0.3-0.8,0.6-1.4,0.8c-0.5,0.2-1.1,0.3-1.7,0.3c-1.2,0-2.2-0.4-3-1.2c-0.8-0.8-1.2-1.9-1.2-3.2h10
		c0-1.5-0.4-2.8-1.2-3.8c-1.1-1.4-2.7-2.2-4.6-2.2c-1.8,0-3.3,0.7-4.4,2.1c-0.9,1.1-1.3,2.4-1.3,3.8c0,1.5,0.5,2.9,1.5,4
		C115.1,33.8,116.5,34.4,118.4,34.4z M115.5,25.1c0.8-0.7,1.7-1.1,2.8-1.1c0.7,0,1.3,0.1,1.9,0.4c0.6,0.3,1.1,0.7,1.5,1.1
		c0.4,0.5,0.6,1.1,0.8,1.8h-8.3C114.5,26.4,114.9,25.6,115.5,25.1z"/>
	<rect x="126.5" y="18.6" fill="#FFFFFF" width="1.4" height="15.5"/>
	<path fill="#FFFFFF" d="M131.4,18.3c-0.3,0-0.6,0.1-0.8,0.3c-0.2,0.2-0.3,0.5-0.3,0.8c0,0.3,0.1,0.6,0.3,0.8
		c0.2,0.2,0.5,0.3,0.8,0.3c0.3,0,0.6-0.1,0.8-0.3c0.2-0.2,0.3-0.5,0.3-0.8c0-0.3-0.1-0.6-0.3-0.8C132,18.4,131.8,18.3,131.4,18.3z"
		/>
	<rect x="130.7" y="22.9" fill="#FFFFFF" width="1.4" height="11.2"/>
	<polygon fill="#FFFFFF" points="136.4,34.1 137.8,34.1 137.8,24.2 140.1,24.2 140.1,22.9 137.8,22.9 137.8,18.8 136.4,18.8 
		136.4,22.9 134.4,22.9 134.4,24.2 136.4,24.2 	"/>
	<path fill="#FFFFFF" d="M147.5,34.4c0.9,0,1.7-0.2,2.5-0.6c0.8-0.4,1.4-0.9,2-1.7v1.9h1.4V22.9H152V25c-0.6-0.8-1.2-1.4-2-1.8
		c-0.7-0.4-1.6-0.6-2.5-0.6c-1.6,0-2.9,0.6-4.1,1.7c-1.1,1.1-1.7,2.5-1.7,4.1c0,1.6,0.6,3,1.7,4.2C144.6,33.8,145.9,34.4,147.5,34.4
		z M143.8,26.3c0.4-0.7,0.9-1.3,1.6-1.7c0.7-0.4,1.4-0.6,2.2-0.6c1.2,0,2.3,0.4,3.1,1.3c0.9,0.9,1.3,1.9,1.3,3.2
		c0,0.8-0.2,1.6-0.6,2.3c-0.4,0.7-0.9,1.2-1.6,1.6c-0.7,0.4-1.4,0.6-2.2,0.6c-0.8,0-1.5-0.2-2.2-0.6c-0.7-0.4-1.2-1-1.6-1.7
		c-0.4-0.7-0.6-1.5-0.6-2.3C143.2,27.7,143.4,27,143.8,26.3z"/>
	<path fill="#FFFFFF" d="M162.5,22.6c-0.9,0-1.7,0.2-2.5,0.6c-0.7,0.4-1.4,1-2,1.8v-2.1h-1.4v15.2h1.4v-6c0.6,0.7,1.3,1.3,2,1.7
		c0.7,0.4,1.6,0.6,2.4,0.6c1.6,0,2.9-0.6,4-1.7c1.1-1.1,1.7-2.5,1.7-4.2c0-1.6-0.6-3-1.7-4.1C165.4,23.2,164.1,22.6,162.5,22.6z
		 M166.2,30.8c-0.4,0.7-0.9,1.3-1.6,1.7c-0.7,0.4-1.4,0.6-2.2,0.6c-0.8,0-1.5-0.2-2.2-0.6c-0.7-0.4-1.2-0.9-1.6-1.6
		c-0.4-0.7-0.6-1.4-0.6-2.3c0-1.3,0.4-2.4,1.3-3.2c0.8-0.9,1.9-1.3,3.1-1.3c0.8,0,1.5,0.2,2.2,0.6c0.7,0.4,1.2,0.9,1.6,1.7
		c0.4,0.7,0.6,1.5,0.6,2.3C166.8,29.3,166.6,30.1,166.2,30.8z"/>
	<path fill="#FFFFFF" d="M178.6,33.8c0.8-0.4,1.4-0.9,2-1.7v1.9h1.4V22.9h-1.4V25c-0.6-0.8-1.2-1.4-2-1.8c-0.7-0.4-1.6-0.6-2.5-0.6
		c-1.6,0-2.9,0.6-4.1,1.7c-1.1,1.1-1.7,2.5-1.7,4.1c0,1.6,0.6,3,1.7,4.2c1.1,1.1,2.5,1.7,4,1.7C177,34.4,177.9,34.2,178.6,33.8z
		 M172.5,30.8c-0.4-0.7-0.6-1.5-0.6-2.3c0-0.8,0.2-1.5,0.6-2.3c0.4-0.7,0.9-1.3,1.6-1.7c0.7-0.4,1.4-0.6,2.2-0.6
		c1.2,0,2.3,0.4,3.1,1.3c0.9,0.9,1.3,1.9,1.3,3.2c0,0.8-0.2,1.6-0.6,2.3c-0.4,0.7-0.9,1.2-1.6,1.6c-0.7,0.4-1.4,0.6-2.2,0.6
		c-0.8,0-1.5-0.2-2.2-0.6C173.4,32,172.9,31.5,172.5,30.8z"/>
	<path fill="#FFFFFF" d="M186.7,30c0-1.5,0.1-2.5,0.2-3c0.2-0.8,0.7-1.6,1.4-2.1s1.5-0.9,2.3-0.9c0.8,0,1.4,0.2,1.8,0.6
		c0.5,0.4,0.8,0.9,1,1.7c0.1,0.4,0.2,1.3,0.2,2.6v5.3h1.4v-5.7c0-1.5-0.2-2.6-0.5-3.4c-0.3-0.7-0.8-1.3-1.4-1.7
		c-0.6-0.4-1.4-0.6-2.2-0.6c-0.8,0-1.6,0.2-2.3,0.6c-0.7,0.4-1.3,1-1.9,1.7v-6.3h-1.4v15.5h1.4V30z"/>
	<polygon fill="#FFFFFF" points="199.3,34.1 200.8,34.1 200.8,24.2 203.1,24.2 203.1,22.9 200.8,22.9 200.8,18.8 199.3,18.8 
		199.3,22.9 197.4,22.9 197.4,24.2 199.3,24.2 	"/>
	<path fill="#FFFFFF" d="M213.3,28.1c0,1.4-0.1,2.3-0.2,2.7c-0.2,0.6-0.6,1.1-1.2,1.5c-0.6,0.4-1.2,0.6-2,0.6
		c-0.8,0-1.5-0.2-2.1-0.6c-0.6-0.4-1-0.9-1.2-1.6c-0.1-0.5-0.2-1.4-0.2-2.6v-5.2H205v5.4c0,1.6,0.2,2.8,0.5,3.6
		c0.4,0.8,0.9,1.4,1.6,1.8c0.7,0.4,1.6,0.7,2.7,0.7c1.1,0,2-0.2,2.7-0.7c0.7-0.4,1.3-1.1,1.6-1.8c0.4-0.8,0.5-1.9,0.5-3.5v-5.5h-1.5
		V28.1z"/>
	<path fill="#FFFFFF" d="M219.4,29.4c0-1.4,0.1-2.4,0.4-3.1c0.3-0.7,0.7-1.2,1.3-1.6c0.6-0.4,1.2-0.6,1.9-0.6c0.6,0,1.1,0.1,1.5,0.4
		c0.4,0.3,0.7,0.7,0.9,1.2c0.2,0.5,0.3,1.4,0.3,2.7v5.7h1.4v-4.4c0-1.6,0.1-2.7,0.4-3.4c0.3-0.7,0.7-1.2,1.3-1.6
		c0.6-0.4,1.2-0.6,1.9-0.6c0.6,0,1.1,0.1,1.5,0.4c0.4,0.3,0.7,0.6,0.9,1.1c0.2,0.4,0.3,1.3,0.3,2.5v6.1h1.5V28
		c0-1.4-0.1-2.4-0.4-3.1c-0.3-0.7-0.7-1.2-1.3-1.6c-0.6-0.4-1.3-0.6-2-0.6c-0.8,0-1.6,0.2-2.3,0.7c-0.7,0.5-1.3,1.1-1.8,2
		c-0.2-0.7-0.5-1.2-0.8-1.5c-0.3-0.4-0.7-0.6-1.2-0.8c-0.5-0.2-1-0.3-1.5-0.3c-0.8,0-1.6,0.2-2.3,0.7c-0.5,0.3-1,0.8-1.5,1.6v-1.9
		H218v11.2h1.4V29.4z"/>
	<path fill="#FFFFFF" d="M242.9,34.4c0.9,0,1.7-0.2,2.5-0.6c0.8-0.4,1.4-0.9,2-1.7v1.9h1.4V22.9h-1.4V25c-0.6-0.8-1.2-1.4-2-1.8
		c-0.7-0.4-1.6-0.6-2.5-0.6c-1.6,0-2.9,0.6-4.1,1.7c-1.1,1.1-1.7,2.5-1.7,4.1c0,1.6,0.6,3,1.7,4.2C240,33.8,241.3,34.4,242.9,34.4z
		 M239.2,26.3c0.4-0.7,0.9-1.3,1.6-1.7c0.7-0.4,1.4-0.6,2.2-0.6c1.2,0,2.3,0.4,3.1,1.3c0.9,0.9,1.3,1.9,1.3,3.2
		c0,0.8-0.2,1.6-0.6,2.3c-0.4,0.7-0.9,1.2-1.6,1.6c-0.7,0.4-1.4,0.6-2.2,0.6c-0.8,0-1.5-0.2-2.2-0.6c-0.7-0.4-1.2-1-1.6-1.7
		c-0.4-0.7-0.6-1.5-0.6-2.3C238.6,27.7,238.8,27,239.2,26.3z"/>
</g>
</svg>
